<svg width="11" height="11" viewBox="0 0 11 11" fill="none" xmlns="http://www.w3.org/2000/svg">
<path d="M4.90988 1.57757L4.90988 8.02904L2.01564 5.21049C1.78434 4.98524 1.40477 4.98524 1.17347 5.21049C1.06241 5.3184 1 5.4649 1 5.61768C1 5.77046 1.06241 5.91696 1.17347 6.02487L5.08187 9.83106C5.31318 10.0563 5.68682 10.0563 5.91812 9.83106L9.82652 6.02487C10.0578 5.79962 10.0578 5.43575 9.82652 5.21049C9.59522 4.98524 9.22158 4.98524 8.99028 5.21049L6.09604 8.02904L6.09604 1.57757C6.09604 1.25991 5.82916 1 5.50296 1C5.17677 1 4.90988 1.25991 4.90988 1.57757Z" fill="#1C3648" stroke="black" stroke-width="0.3"/>
</svg>
