<svg width="9" height="9" viewBox="0 0 9 9" fill="none" xmlns="http://www.w3.org/2000/svg">
<path d="M3.90988 0.577571L3.90988 7.02904L1.01564 4.21049C0.784342 3.98524 0.404769 3.98524 0.173468 4.21049C0.0624117 4.3184 5.40805e-08 4.4649 5.22586e-08 4.61768C5.04368e-08 4.77046 0.0624117 4.91696 0.173468 5.02487L4.08187 8.83106C4.31318 9.05631 4.68682 9.05631 4.91812 8.83106L8.82652 5.02487C9.05783 4.79962 9.05783 4.43575 8.82652 4.21049C8.59522 3.98524 8.22158 3.98524 7.99028 4.21049L5.09604 7.02904L5.09604 0.577571C5.09604 0.259907 4.82916 5.75871e-08 4.50296 5.36973e-08C4.17677 4.98074e-08 3.90988 0.259907 3.90988 0.577571Z" fill="white"/>
</svg>
