<svg width="112" height="34" viewBox="0 0 112 34" fill="none" xmlns="http://www.w3.org/2000/svg">
<g clip-path="url(#clip0)">
<path d="M4.39666 25.8727C3.17912 25.8727 2.14196 25.4431 1.28518 24.5841C0.428393 23.725 0 22.6851 0 21.4643V5.86541C0 4.64463 0.428393 3.60471 1.28518 2.74563C2.14196 1.88657 3.17912 1.45703 4.39666 1.45703H19.9541C21.1491 1.45703 22.175 1.88657 23.0318 2.74563C23.911 3.60471 24.3508 4.64463 24.3508 5.86541V21.4643C24.3508 22.6851 23.911 23.725 23.0318 24.5841C22.175 25.4431 21.1491 25.8727 19.9541 25.8727H4.39666ZM4.90398 22.2103H19.413C19.909 22.2103 20.2359 22.1312 20.3938 21.9729C20.5741 21.792 20.6643 21.4529 20.6643 20.9557V6.37408C20.6643 5.87671 20.5741 5.54891 20.3938 5.39066C20.2359 5.20981 19.909 5.11938 19.413 5.11938H4.90398C4.40794 5.11938 4.06973 5.20981 3.88935 5.39066C3.73153 5.54891 3.65261 5.87671 3.65261 6.37408V20.9557C3.65261 21.4529 3.73153 21.792 3.88935 21.9729C4.06973 22.1312 4.40794 22.2103 4.90398 22.2103Z" fill="#DFAA3E"/>
<path d="M28.6841 25.8752V6.20703H44.2414C45.459 6.20703 46.4961 6.63656 47.3529 7.49564C48.2097 8.35471 48.6381 9.39462 48.6381 10.6154V25.8752H44.9855V11.1241C44.9855 10.6267 44.8954 10.2989 44.7149 10.1407C44.5571 9.9598 44.2302 9.86937 43.7342 9.86937H33.588C33.092 9.86937 32.7537 9.9598 32.5734 10.1407C32.4156 10.2989 32.3367 10.6267 32.3367 11.1241V25.8752H28.6841Z" fill="#DFAA3E"/>
<path d="M57.272 25.8738C56.0546 25.8738 55.0173 25.4442 54.1605 24.5852C53.3039 23.7261 52.8755 22.6862 52.8755 21.4654V0H56.5281V6.20563H64.5774V9.86797H56.5281V20.9568C56.5281 21.454 56.6069 21.7932 56.7648 21.974C56.9451 22.1323 57.2834 22.2114 57.7794 22.2114H64.5774V25.8738H57.272Z" fill="#DFAA3E"/>
<path d="M72.2478 25.8752C71.0302 25.8752 69.9931 25.4456 69.1363 24.5866C68.2795 23.7275 67.8511 22.6876 67.8511 21.4668V10.6154C67.8511 9.39462 68.2795 8.35471 69.1363 7.49564C69.9931 6.63656 71.0302 6.20703 72.2478 6.20703H83.4086C84.626 6.20703 85.6633 6.63656 86.5201 7.49564C87.3767 8.35471 87.8051 9.39462 87.8051 10.6154V21.4668C87.8051 22.6876 87.3767 23.7275 86.5201 24.5866C85.6633 25.4456 84.626 25.8752 83.4086 25.8752H72.2478ZM72.7551 22.2128H82.9012C83.3972 22.2128 83.7241 22.1337 83.882 21.9754C84.0398 21.7946 84.1188 21.4554 84.1188 20.9582V11.1241C84.1188 10.6267 84.0398 10.2989 83.882 10.1407C83.7241 9.9598 83.3972 9.86937 82.9012 9.86937H72.7551C72.259 9.86937 71.9209 9.9598 71.7404 10.1407C71.5826 10.2989 71.5037 10.6267 71.5037 11.1241V20.9582C71.5037 21.4554 71.5826 21.7946 71.7404 21.9754C71.9209 22.1337 72.259 22.2128 72.7551 22.2128Z" fill="#DFAA3E"/>
<path d="M92.0459 33.6746V6.20703H107.603C108.821 6.20703 109.858 6.63656 110.715 7.49564C111.572 8.35471 112 9.39462 112 10.6154V21.4668C112 22.6876 111.572 23.7275 110.715 24.5866C109.858 25.4456 108.821 25.8752 107.603 25.8752H95.6985V33.6746H92.0459ZM96.9498 22.2128H107.096C107.592 22.2128 107.919 22.1337 108.077 21.9754C108.257 21.7946 108.347 21.4554 108.347 20.9582V11.1241C108.347 10.6267 108.257 10.2989 108.077 10.1407C107.919 9.9598 107.592 9.86937 107.096 9.86937H96.9498C96.4538 9.86937 96.1156 9.9598 95.9352 10.1407C95.7773 10.2989 95.6985 10.6267 95.6985 11.1241V20.9582C95.6985 21.4554 95.7773 21.7946 95.9352 21.9754C96.1156 22.1337 96.4538 22.2128 96.9498 22.2128Z" fill="#DFAA3E"/>
</g>
<defs>
<clipPath id="clip0">
<rect width="112" height="33.6732" fill="white"/>
</clipPath>
</defs>
</svg>
