<svg width="360" height="366" viewBox="0 0 360 366" fill="none" xmlns="http://www.w3.org/2000/svg">
<mask id="mask0" style="mask-type:alpha" maskUnits="userSpaceOnUse" x="34" y="0" width="310" height="315">
<rect x="34" width="310" height="315" rx="24" fill="url(#paint0_linear)"/>
</mask>
<g mask="url(#mask0)">
<path d="M321.129 180.17C320.829 180.17 320.574 179.916 320.574 179.616V107.905C320.574 107.605 320.814 107.351 321.129 107.351C321.428 107.351 321.683 107.605 321.683 107.905V179.616C321.683 179.931 321.443 180.17 321.129 180.17Z" fill="#F75B37"/>
<path d="M321.129 116.891C321.129 113.896 321.129 110.9 321.129 107.905C315.198 109.537 309.252 110.945 303.321 110.032C297.39 109.627 291.444 106.916 285.513 112.203C291.444 108.279 297.39 112.563 303.321 114.525C309.252 117.011 315.198 117.161 321.129 116.891Z" fill="#F75B37"/>
<path d="M229.617 200.691L229.573 205.229C229.573 205.858 230.097 206.412 230.756 206.412H240.611C242.034 206.427 242.453 204.6 241.15 204.061C237.57 202.578 233.287 200.796 231.085 199.807C230.396 199.508 229.617 199.972 229.617 200.691Z" fill="#873421"/>
<path d="M217.006 154.29C221.545 168.009 224.001 181.563 224.315 194.893C224.435 199.836 228.344 203.939 233.452 203.999C234.59 204.014 235.683 203.834 236.702 203.505C240.731 202.202 243.636 198.428 243.546 194.159C243.232 178.987 240.491 163.59 235.369 148.119C233.706 143.101 228.03 140.585 222.878 142.577C218.085 144.464 215.464 149.617 217.006 154.29Z" fill="#091254"/>
<path d="M183.203 153.194C178.38 155.037 176.029 160.384 177.946 165.146C179.863 169.909 181.361 173.249 186.183 171.407C199.139 166.449 215.778 161.941 228.105 159.829C233.122 158.976 236.462 154.273 235.623 149.315C234.755 144.178 229.782 140.763 224.585 141.647C211.076 143.968 197.267 147.818 183.203 153.194Z" fill="#091254"/>
<path d="M202.209 99.5325C201.625 98.7088 201.101 97.7802 201.101 96.7767C201.101 95.7582 201.625 94.8297 202.059 93.916C202.493 92.9874 202.823 91.9241 202.434 90.9805C202.973 91.1752 203.437 91.5796 203.707 92.0738C204.95 90.9805 205.848 89.5576 206.283 88C207.721 88.7788 208.874 90.0369 209.503 91.5197C210.012 91.1153 210.357 90.5312 210.446 89.9021C211.016 90.9805 211.585 92.0439 212.169 93.1222C212.274 93.302 212.603 93.4517 212.618 93.257C212.993 94.2755 213.008 95.9679 212.588 96.9564C211.824 95.0244 209.263 93.3769 207.241 94.1107C206.762 94.2905 206.313 94.5601 205.998 94.9345C205.654 95.3539 205.504 95.8781 205.264 96.3723C204.995 96.9265 204.605 97.4507 204.411 98.0348C204.156 98.7986 204.261 99.5775 204.5 100.326C204.62 100.716 207.736 104.011 207.331 104.295C206.477 104.894 202.479 99.9219 202.209 99.5325Z" fill="#1D113E"/>
<path d="M210.266 109.506C207.84 111.049 206.702 112.532 207.915 115.063C209.742 118.867 215.104 125.891 218.848 129.8C220.331 131.358 221.694 132.901 223.596 133.605C226.068 134.518 227.97 133.515 228.973 131.178C229.392 130.205 229.437 129.366 227.52 126.49C226.202 124.528 220.945 115.722 218.654 111.528C217.081 108.637 213.202 107.634 210.266 109.506Z" fill="white"/>
<path d="M246.497 110.404C246.856 109.745 246.812 109.131 246.617 108.412C245.913 105.731 243.786 108.951 242.004 111.123C241.525 111.707 240.836 112.606 240.341 113.16L242.947 115.062C244.969 112.861 245.568 112.112 246.497 110.404Z" fill="#FE9784"/>
<path d="M241.075 109.476C241.015 109.206 240.985 108.921 241.09 108.667C241.12 108.577 241.195 108.502 241.285 108.487C241.39 108.472 241.48 108.547 241.554 108.637C241.959 109.086 243.412 111.887 242.753 112.396C241.899 113.025 241.15 109.85 241.075 109.476Z" fill="#FE9784"/>
<path d="M240.476 112.965C237.451 116.335 224.69 124.633 223.252 125.591C220.556 127.388 220.362 129.216 221.994 131.163C224.585 134.278 225.559 135.102 227.985 132.72C230.456 130.309 238.769 120.364 242.603 115.541C242.738 115.362 242.857 115.212 242.962 115.077L240.476 112.965Z" fill="white"/>
<path d="M151.166 240.739V245.277C151.166 245.906 151.69 246.43 152.349 246.43H162.204C163.627 246.43 164.032 244.573 162.729 244.034C159.134 242.581 154.851 240.813 152.649 239.855C151.945 239.555 151.166 240.02 151.166 240.739Z" fill="#873421"/>
<path d="M172.464 193.785C166.114 206.426 158.385 217.554 149.294 227.049C145.924 230.584 145.849 236.081 149.444 239.585C150.238 240.364 151.136 240.978 152.11 241.443C155.899 243.255 160.602 242.596 163.523 239.555C173.902 228.757 182.873 216.191 190.047 201.932C192.369 197.319 189.928 191.688 184.85 189.606C180.102 187.659 174.636 189.486 172.464 193.785Z" fill="#2A3775"/>
<path d="M196.592 160.312C196.817 155.429 192.683 151.205 187.366 150.876C182.049 150.546 177.541 154.246 177.316 159.128C176.702 172.263 174.86 184.575 171.805 195.988C170.562 200.645 173.662 205.438 178.739 206.771C183.981 208.149 189.658 204.929 190.931 200.121C194.256 187.615 195.918 174.57 196.592 160.312Z" fill="#2A3775"/>
<path d="M185.569 135.493C187.651 128.034 183.337 125.488 185.494 121.04C186.737 118.479 197.012 109.612 209.368 107.59C213.292 106.946 218.309 109.837 218.849 112.518C220.691 121.789 209.054 134.445 206.747 146.996C205.998 151.04 206.208 153.511 201.235 156.746C197.716 159.037 193.657 159.876 190.152 160.071C183.592 160.43 176.523 162.272 176.358 156.761C176.178 150.455 183.802 141.828 185.569 135.493Z" fill="white"/>
<path d="M202.194 95.5022C202.448 93.9894 204.216 93.0309 205.863 92.4468C206.897 92.0873 207.99 91.7728 209.098 91.8028C210.207 91.8327 211.36 92.2221 211.974 93.0309C212.468 93.6749 212.558 94.4987 212.633 95.2775C212.648 95.5022 212.678 95.7418 212.588 95.9665C212.498 96.2061 212.303 96.3858 212.094 96.5655C211.105 97.4043 209.877 98.1082 209.083 99.0967C208.484 99.8456 208.544 104.189 207.331 104.279C205.054 104.474 201.924 97.0748 202.194 95.5022Z" fill="#1D113E"/>
<path d="M211.165 104.353C211.33 104.219 211.555 104.159 211.764 104.069C212.798 103.649 213.292 102.511 213.457 101.448C213.801 99.276 213.127 96.9845 211.674 95.292C210.821 94.2886 209.563 93.4648 208.23 93.6146C206.642 93.7943 205.519 95.307 205.339 96.8197C205.144 98.3324 205.669 99.8302 206.193 101.283C206.672 102.616 207.496 108.532 208.799 109.371C211.48 111.108 210.297 105.057 211.165 104.353Z" fill="#FE9784"/>
<path d="M207.047 100.13C206.702 99.7553 206.163 99.5306 205.654 99.6205C205.144 99.7103 204.695 100.145 204.695 100.654C204.695 101.103 205.01 101.478 205.309 101.822C205.833 102.406 206.417 103.035 207.211 103.185C207.286 103.2 207.361 103.215 207.436 103.185C207.511 103.155 207.571 103.065 207.601 102.99C207.99 102.167 207.511 101.208 207.032 100.429L207.047 100.13Z" fill="#FE9784"/>
<path d="M210.401 101.581C210.446 102.016 210.955 102.36 211.539 102.33C212.124 102.3 212.588 101.926 212.588 101.477L210.401 101.581Z" fill="white"/>
<path d="M204.995 99.4096C206.702 96.9533 209.143 94.9613 211.959 93.7482C210.686 92.8346 208.874 92.6698 207.286 92.7297C206.552 92.7597 205.803 92.8346 205.174 93.179C204.111 93.7781 203.662 95.0812 203.767 96.2644C203.871 97.4476 204.441 98.3462 204.995 99.4096Z" fill="#1D113E"/>
<path d="M195.244 115.903C192.938 113.941 189.119 117.041 186.573 118.748C182.738 121.31 175.594 128.259 172.104 132.662C170.727 134.4 169.304 136.032 168.974 137.994C168.555 140.525 170.113 142.113 172.973 142.562C174.156 142.742 175.1 142.592 177.871 140.166C183.457 135.268 188.475 132.198 193.133 129.936C196.383 128.334 198.03 118.269 195.244 115.903Z" fill="white"/>
<path d="M207.646 107.261L206.462 108.309C206.462 108.309 207.286 111.799 210.027 111.26L210.147 109.448C210.162 109.433 207.975 108.789 207.646 107.261Z" fill="#C3F4FC"/>
<path d="M210.162 109.433L211.749 110.78C211.749 110.78 212.453 109.612 212.349 107.68L210.701 107.246C210.701 107.261 210.686 108.444 210.162 109.433Z" fill="#C3F4FC"/>
<path d="M191.785 133.261C194.301 132.587 196.832 131.749 199.034 130.281C201.22 128.813 203.212 126.986 204.8 124.814C206.388 122.643 207.631 120.186 208.559 117.61C209.488 115.034 210.177 112.338 210.327 109.567C210.551 112.338 210.252 115.139 209.683 117.895C209.098 120.651 208.185 123.391 206.792 125.952C205.399 128.514 203.497 130.865 201.19 132.902C198.869 134.939 196.053 136.362 193.133 137.53L191.785 133.261Z" fill="#F75B37"/>
<path d="M175.04 169.819C175.235 169.01 174.71 168.202 173.857 168.007L146.029 161.776C145.175 161.582 144.337 162.091 144.127 162.9L139.364 182.295C139.169 183.104 139.694 183.913 140.547 184.108L168.375 190.338C169.229 190.533 170.068 190.024 170.277 189.215L175.04 169.819Z" fill="#CD603F"/>
<path d="M158.505 170.764C155.45 170.225 153.413 167.41 153.982 164.489C154.551 161.568 157.487 159.621 160.557 160.161C163.612 160.7 165.649 163.515 165.08 166.436C164.511 169.357 161.575 171.304 158.505 170.764ZM160.347 161.254C157.921 160.82 155.584 162.362 155.135 164.684C154.686 167.005 156.303 169.237 158.73 169.671C161.156 170.105 163.493 168.563 163.942 166.241C164.391 163.92 162.774 161.673 160.347 161.254Z" fill="#CD603F"/>
<path d="M159.973 161.522C159.688 162.196 159.733 162.99 160.078 163.679C161.366 166.225 162.684 162.675 163.897 160.204C164.226 159.545 164.556 158.901 164.915 158.257L162.025 156.699C161.351 158.212 160.677 159.814 159.973 161.522Z" fill="#FE9784"/>
<path d="M164.436 161.643C164.451 161.853 164.451 162.078 164.346 162.243C164.316 162.302 164.256 162.362 164.181 162.347C164.107 162.347 164.047 162.272 164.002 162.213C163.747 161.823 162.938 159.562 163.478 159.262C164.152 158.888 164.406 161.359 164.436 161.643Z" fill="#FE9784"/>
<path d="M168.869 137.531C167.401 140.542 163.882 150.756 161.98 156.462C161.635 157.481 161.485 157.87 162.459 158.454C163.777 159.263 164.346 159.638 164.87 158.365C166.503 154.291 175.145 142.444 176.148 141.126C178.035 138.654 177.96 137.202 175.759 135.764C172.254 133.502 170.307 134.581 168.869 137.531Z" fill="white"/>
<path opacity="0.5" d="M359.8 365.874V178.763H280.39V192.197H254.51V205.632H228.629V219.081H202.763V232.516H176.882V245.966H151.001V259.4H125.136V272.835H99.2548V286.285H73.374V299.719H47.5082V313.154H21.6274V326.604H-4.2534V340.038H-30.1192V353.473H-56V365.874H359.8Z" fill="#F2F7FA"/>
</g>
<defs>
<linearGradient id="paint0_linear" x1="26.8241" y1="320" x2="317.012" y2="3.27315" gradientUnits="userSpaceOnUse">
<stop stop-color="#2B95E1"/>
<stop offset="1" stop-color="#3FC5FF"/>
</linearGradient>
</defs>
</svg>
