<svg width="132" height="133" viewBox="0 0 132 133" fill="none" xmlns="http://www.w3.org/2000/svg">
<path d="M73.4837 74.093C77.6557 69.9211 77.6557 63.1571 73.4837 58.9851C69.3117 54.8132 62.5475 54.8132 58.3754 58.9851C54.2034 63.1571 54.2034 69.9211 58.3754 74.093C62.5475 78.2649 69.3117 78.2649 73.4837 74.093Z" fill="black"/>
<path d="M79.2383 29.3929C64.1497 23.7306 45.9342 28.6917 35.7463 41.1496C25.2034 54.0357 23.3651 72.4806 32.1078 86.8929C40.8036 101.226 57.6597 108.355 74.0167 105.161C92.241 101.602 105.178 84.8122 105.399 66.5378C105.197 49.8414 94.8335 35.2472 79.2383 29.3929ZM75.0337 91.3197C64.295 95.0655 52.8412 91.9513 45.487 83.2481C38.4575 74.9227 37.678 62.2437 43.4138 52.7913C48.9007 43.7445 60.1827 38.4561 70.5361 40.5369C83.2735 43.0989 92.1513 53.7224 92.3067 66.5353C92.1741 77.4405 85.3303 87.7292 75.0337 91.3197Z" fill="#F92428"/>
<path d="M87.9547 4.24758C62.4267 -5.00391 32.2761 3.28996 15.1256 24.3424C-2.38739 45.8395 -5.16558 76.6147 9.27489 100.545C23.6358 124.359 51.6778 136.487 78.8873 131.32C109.561 125.491 131.792 97.4422 132 66.5395C131.814 38.6574 114.145 13.7391 87.9547 4.24758ZM84.474 116.207C63.0748 123.978 39.4609 117.521 24.8688 100.067C10.7796 83.2144 9.18015 58.0308 20.5733 39.1412C31.9135 20.3426 54.715 10.1424 76.185 14.5363C100.979 19.6099 118.74 41.4279 118.909 66.5395C118.764 88.3537 104.994 108.755 84.474 116.207Z" fill="#3FAAF2"/>
</svg>
